# xmcd
#
# Track frame offsets:
#	150
#	15497
#	32427
#	47948
#	63751
#	76392
#	93606
#	112091
#	128817
#	146074
#	164240
#	181319
#	200602
#	214587
#	229642
#	248946
#	262618
#	278384
#	295970
#	314514
#
# Disc length: 4356 seconds
#
# Revision: 1
# Processed by: cddbd v1.5.2PL0 Copyright (c) Steve Scherf et al.
# Submitted via: audiograbber 1.83.01
#
DISCID=1f110214
DTITLE=Billy Ray Cyrus - The definetive Collection CD1
DYEAR=1900
DGENRE=Country
TTITLE0=Achy Breaky Heart
TTITLE1=Could´ve Been me
TTITLE2=She´s not crying anymore
TTITLE3=Wher´m I gonna Live
TTITLE4=These Boots are made for walking
TTITLE5=Someday,somewhere,somehow
TTITLE6=Some gave all
TTITLE7=Never thought I´d fall in love with you
TTITLE8=It won´t be the Last
TTITLE9=In the heart of a Woman
TTITLE10=Somebody new
TTITLE11=Dreaming in colour living in Black and White
TTITLE12=Words by Heart
TTITLE13=Only time will Tell
TTITLE14=Talk some
TTITLE15=When i´m gone
TTITLE16=Right Face wrong Time
TTITLE17=Storm in the Heartland
TTITLE18=The Past
TTITLE19=A Heart with your Name on it
EXTD=
EXTT0=
EXTT1=
EXTT2=
EXTT3=
EXTT4=
EXTT5=
EXTT6=
EXTT7=
EXTT8=
EXTT9=
EXTT10=
EXTT11=
EXTT12=
EXTT13=
EXTT14=
EXTT15=
EXTT16=
EXTT17=
EXTT18=
EXTT19=
PLAYORDER=
